<mxfile host="app.diagrams.net" modified="2022-05-05T00:36:51.032Z" agent="5.0 (X11; Linux x86_64) AppleWebKit/537.36 (KHTML, like Gecko) Chrome/99.0.4844.88 Safari/537.36  " etag="FXl2c465iBKDM6S3ic-h" version="18.0.0" type="github">
  <diagram id="LMgcYiiHfjle0VuwrGUr" name="Page-1">
    <mxGraphModel dx="1356" dy="1051" grid="1" gridSize="10" guides="1" tooltips="1" connect="1" arrows="1" fold="1" page="1" pageScale="1" pageWidth="850" pageHeight="1100" math="0" shadow="0">
      <root>
        <mxCell id="0" />
        <mxCell id="1" parent="0" />
        <object label="" id="rGmWDZlZw_GgGo8omANq-1">
          <mxCell style="whiteSpace=wrap;html=1;aspect=fixed;" vertex="1" parent="1">
            <mxGeometry x="200" y="90" width="610" height="610" as="geometry" />
          </mxCell>
        </object>
        <mxCell id="rGmWDZlZw_GgGo8omANq-2" value="Azure Resource Group" style="text;html=1;resizable=0;autosize=1;align=center;verticalAlign=middle;points=[];fillColor=none;strokeColor=none;rounded=0;" vertex="1" parent="1">
          <mxGeometry x="415" y="70" width="140" height="20" as="geometry" />
        </mxCell>
        <mxCell id="rGmWDZlZw_GgGo8omANq-3" value="" style="whiteSpace=wrap;html=1;aspect=fixed;" vertex="1" parent="1">
          <mxGeometry x="220" y="105" width="575" height="575" as="geometry" />
        </mxCell>
        <mxCell id="rGmWDZlZw_GgGo8omANq-4" value="Azure Virtual Network:&amp;nbsp; 10.3.0.0/16" style="text;html=1;resizable=0;autosize=1;align=center;verticalAlign=middle;points=[];fillColor=none;strokeColor=none;rounded=0;" vertex="1" parent="1">
          <mxGeometry x="385" y="105" width="200" height="20" as="geometry" />
        </mxCell>
        <mxCell id="rGmWDZlZw_GgGo8omANq-7" value="Azure Virtual Subnet: 10.3.0.0/24" style="text;html=1;resizable=0;autosize=1;align=center;verticalAlign=middle;points=[];fillColor=none;strokeColor=none;rounded=0;" vertex="1" parent="1">
          <mxGeometry x="395" y="125" width="190" height="20" as="geometry" />
        </mxCell>
        <mxCell id="rGmWDZlZw_GgGo8omANq-37" style="edgeStyle=none;shape=flexArrow;rounded=0;orthogonalLoop=1;jettySize=auto;html=1;" edge="1" parent="1" source="rGmWDZlZw_GgGo8omANq-11" target="rGmWDZlZw_GgGo8omANq-16">
          <mxGeometry relative="1" as="geometry" />
        </mxCell>
        <mxCell id="rGmWDZlZw_GgGo8omANq-11" value="" style="sketch=0;aspect=fixed;html=1;points=[];align=center;image;fontSize=12;image=img/lib/mscae/Azure_Firewall.svg;" vertex="1" parent="1">
          <mxGeometry x="270" y="231" width="100" height="100" as="geometry" />
        </mxCell>
        <mxCell id="rGmWDZlZw_GgGo8omANq-15" style="rounded=0;orthogonalLoop=1;jettySize=auto;html=1;exitX=0.5;exitY=1;exitDx=0;exitDy=0;entryX=0.538;entryY=-0.03;entryDx=0;entryDy=0;entryPerimeter=0;shape=link;" edge="1" parent="1" source="rGmWDZlZw_GgGo8omANq-12" target="rGmWDZlZw_GgGo8omANq-14">
          <mxGeometry relative="1" as="geometry" />
        </mxCell>
        <mxCell id="rGmWDZlZw_GgGo8omANq-12" value="" style="aspect=fixed;perimeter=ellipsePerimeter;html=1;align=center;shadow=0;dashed=0;spacingTop=3;image;image=img/lib/active_directory/internet_cloud.svg;" vertex="1" parent="1">
          <mxGeometry x="20" y="246" width="126.98" height="80" as="geometry" />
        </mxCell>
        <mxCell id="rGmWDZlZw_GgGo8omANq-14" value="" style="points=[];aspect=fixed;html=1;align=center;shadow=0;dashed=0;image;image=img/lib/allied_telesis/computer_and_terminals/Laptop.svg;" vertex="1" parent="1">
          <mxGeometry x="30" y="396" width="98.59" height="100" as="geometry" />
        </mxCell>
        <mxCell id="rGmWDZlZw_GgGo8omANq-16" value="" style="aspect=fixed;perimeter=ellipsePerimeter;html=1;align=center;shadow=0;dashed=0;spacingTop=3;image;image=img/lib/active_directory/generic_server.svg;" vertex="1" parent="1">
          <mxGeometry x="291" y="390" width="61.6" height="110" as="geometry" />
        </mxCell>
        <mxCell id="rGmWDZlZw_GgGo8omANq-24" value="" style="outlineConnect=0;dashed=0;verticalLabelPosition=bottom;verticalAlign=top;align=center;html=1;shape=mxgraph.aws3.application_load_balancer;fillColor=#F58534;gradientColor=none;" vertex="1" parent="1">
          <mxGeometry x="497" y="260" width="69" height="72" as="geometry" />
        </mxCell>
        <mxCell id="rGmWDZlZw_GgGo8omANq-31" value="" style="group" vertex="1" connectable="0" parent="1">
          <mxGeometry x="401.5" y="347" width="260" height="320" as="geometry" />
        </mxCell>
        <mxCell id="rGmWDZlZw_GgGo8omANq-27" value="" style="whiteSpace=wrap;html=1;" vertex="1" parent="rGmWDZlZw_GgGo8omANq-31">
          <mxGeometry y="-7.415172413793105" width="260" height="308.96551724137936" as="geometry" />
        </mxCell>
        <mxCell id="rGmWDZlZw_GgGo8omANq-22" value="" style="aspect=fixed;perimeter=ellipsePerimeter;html=1;align=center;shadow=0;dashed=0;spacingTop=3;image;image=img/lib/active_directory/web_server.svg;" vertex="1" parent="rGmWDZlZw_GgGo8omANq-31">
          <mxGeometry x="38" y="48.27586206896552" width="88" height="110" as="geometry" />
        </mxCell>
        <mxCell id="rGmWDZlZw_GgGo8omANq-59" value="" style="line;strokeWidth=4;html=1;perimeter=backbonePerimeter;points=[];outlineConnect=0;fontSize=14;rotation=65;" vertex="1" parent="rGmWDZlZw_GgGo8omANq-31">
          <mxGeometry x="126" y="11.03448275862069" width="94.33" height="11.03448275862069" as="geometry" />
        </mxCell>
        <mxCell id="rGmWDZlZw_GgGo8omANq-23" value="" style="aspect=fixed;perimeter=ellipsePerimeter;html=1;align=center;shadow=0;dashed=0;spacingTop=3;image;image=img/lib/active_directory/web_server.svg;" vertex="1" parent="rGmWDZlZw_GgGo8omANq-31">
          <mxGeometry x="154" y="48.27586206896552" width="88" height="110" as="geometry" />
        </mxCell>
        <mxCell id="rGmWDZlZw_GgGo8omANq-30" style="edgeStyle=none;shape=link;rounded=0;orthogonalLoop=1;jettySize=auto;html=1;exitX=1;exitY=0;exitDx=0;exitDy=0;" edge="1" parent="rGmWDZlZw_GgGo8omANq-31" source="rGmWDZlZw_GgGo8omANq-27" target="rGmWDZlZw_GgGo8omANq-27">
          <mxGeometry relative="1" as="geometry" />
        </mxCell>
        <mxCell id="rGmWDZlZw_GgGo8omANq-35" value="Web-1&lt;br&gt;Docker/DVWA&lt;br&gt;10.3.0.5" style="text;html=1;resizable=0;autosize=1;align=center;verticalAlign=middle;points=[];fillColor=none;strokeColor=none;rounded=0;" vertex="1" parent="rGmWDZlZw_GgGo8omANq-31">
          <mxGeometry x="18.5" y="195.77241379310348" width="90" height="50" as="geometry" />
        </mxCell>
        <mxCell id="rGmWDZlZw_GgGo8omANq-36" value="Web-2&lt;br&gt;Docker/DVWA&lt;br&gt;10.3.0.6" style="text;html=1;resizable=0;autosize=1;align=center;verticalAlign=middle;points=[];fillColor=none;strokeColor=none;rounded=0;" vertex="1" parent="rGmWDZlZw_GgGo8omANq-31">
          <mxGeometry x="143.5" y="199.9793103448276" width="90" height="50" as="geometry" />
        </mxCell>
        <mxCell id="rGmWDZlZw_GgGo8omANq-50" value="" style="line;strokeWidth=4;direction=south;html=1;perimeter=backbonePerimeter;points=[];outlineConnect=0;fontSize=16;" vertex="1" parent="rGmWDZlZw_GgGo8omANq-31">
          <mxGeometry x="58.5" y="149.51724137931035" width="10" height="33.10344827586207" as="geometry" />
        </mxCell>
        <mxCell id="rGmWDZlZw_GgGo8omANq-51" value="" style="line;strokeWidth=4;direction=south;html=1;perimeter=backbonePerimeter;points=[];outlineConnect=0;fontSize=16;" vertex="1" parent="rGmWDZlZw_GgGo8omANq-31">
          <mxGeometry x="181.5" y="149.51724137931035" width="10" height="33.10344827586207" as="geometry" />
        </mxCell>
        <mxCell id="rGmWDZlZw_GgGo8omANq-53" value="&lt;b&gt;&lt;font style=&quot;font-size: 16px;&quot;&gt;SSH&lt;/font&gt;&lt;/b&gt;" style="text;html=1;resizable=0;autosize=1;align=center;verticalAlign=middle;points=[];fillColor=none;strokeColor=none;rounded=0;" vertex="1" parent="rGmWDZlZw_GgGo8omANq-31">
          <mxGeometry x="108.5" y="158.51724137931035" width="50" height="20" as="geometry" />
        </mxCell>
        <mxCell id="rGmWDZlZw_GgGo8omANq-58" value="" style="line;strokeWidth=4;html=1;perimeter=backbonePerimeter;points=[];outlineConnect=0;fontSize=14;rotation=-240;" vertex="1" parent="rGmWDZlZw_GgGo8omANq-31">
          <mxGeometry x="38" y="11.03448275862069" width="94.33" height="11.03448275862069" as="geometry" />
        </mxCell>
        <mxCell id="rGmWDZlZw_GgGo8omANq-60" value="&lt;font style=&quot;font-size: 12px;&quot;&gt;Azure Load Balancer&lt;br&gt;&lt;/font&gt;Backend Pool" style="text;html=1;resizable=0;autosize=1;align=center;verticalAlign=middle;points=[];fillColor=none;strokeColor=none;rounded=0;" vertex="1" parent="rGmWDZlZw_GgGo8omANq-31">
          <mxGeometry x="63.5" y="269.82988505747124" width="130" height="30" as="geometry" />
        </mxCell>
        <mxCell id="rGmWDZlZw_GgGo8omANq-32" value="Internet" style="text;html=1;resizable=0;autosize=1;align=center;verticalAlign=middle;points=[];fillColor=none;strokeColor=none;rounded=0;" vertex="1" parent="1">
          <mxGeometry x="49.30000000000001" y="219" width="60" height="20" as="geometry" />
        </mxCell>
        <mxCell id="rGmWDZlZw_GgGo8omANq-33" value="Host" style="text;html=1;resizable=0;autosize=1;align=center;verticalAlign=middle;points=[];fillColor=none;strokeColor=none;rounded=0;" vertex="1" parent="1">
          <mxGeometry x="59.30000000000001" y="500" width="40" height="20" as="geometry" />
        </mxCell>
        <mxCell id="rGmWDZlZw_GgGo8omANq-34" value="Japan-Jump&lt;br&gt;Docker/Ansible&lt;br&gt;20.89.142.187&lt;br&gt;10.3.0.4" style="text;html=1;resizable=0;autosize=1;align=center;verticalAlign=middle;points=[];fillColor=none;strokeColor=none;rounded=0;" vertex="1" parent="1">
          <mxGeometry x="250" y="537" width="100" height="60" as="geometry" />
        </mxCell>
        <mxCell id="rGmWDZlZw_GgGo8omANq-38" value="&lt;b&gt;&lt;font style=&quot;font-size: 16px;&quot;&gt;SSH (22)&lt;/font&gt;&lt;/b&gt;" style="text;html=1;resizable=0;autosize=1;align=center;verticalAlign=middle;points=[];fillColor=none;strokeColor=none;rounded=0;" vertex="1" parent="1">
          <mxGeometry x="321" y="340" width="80" height="20" as="geometry" />
        </mxCell>
        <mxCell id="rGmWDZlZw_GgGo8omANq-47" value="" style="line;strokeWidth=4;html=1;perimeter=backbonePerimeter;points=[];outlineConnect=0;fontSize=16;" vertex="1" parent="1">
          <mxGeometry x="300.5" y="523" width="289.5" height="10" as="geometry" />
        </mxCell>
        <mxCell id="rGmWDZlZw_GgGo8omANq-48" value="" style="line;strokeWidth=4;direction=south;html=1;perimeter=backbonePerimeter;points=[];outlineConnect=0;fontSize=16;" vertex="1" parent="1">
          <mxGeometry x="297.5" y="498" width="10" height="30" as="geometry" />
        </mxCell>
        <mxCell id="rGmWDZlZw_GgGo8omANq-52" value="&lt;b&gt;&lt;font style=&quot;font-size: 16px;&quot;&gt;SSH&lt;/font&gt;&lt;/b&gt;" style="text;html=1;resizable=0;autosize=1;align=center;verticalAlign=middle;points=[];fillColor=none;strokeColor=none;rounded=0;" vertex="1" parent="1">
          <mxGeometry x="335" y="500" width="50" height="20" as="geometry" />
        </mxCell>
        <mxCell id="rGmWDZlZw_GgGo8omANq-56" value="&lt;span style=&quot;font-size: 16px;&quot;&gt;Azure Load Balancer&lt;/span&gt;&lt;br&gt;20.222.210.10" style="text;html=1;resizable=0;autosize=1;align=center;verticalAlign=middle;points=[];fillColor=none;strokeColor=none;rounded=0;" vertex="1" parent="1">
          <mxGeometry x="451.5" y="220.00000000000006" width="160" height="30" as="geometry" />
        </mxCell>
        <mxCell id="rGmWDZlZw_GgGo8omANq-57" value="&lt;font style=&quot;font-size: 14px;&quot;&gt;Azure Network Security Group&lt;/font&gt;" style="text;html=1;resizable=0;autosize=1;align=center;verticalAlign=middle;points=[];fillColor=none;strokeColor=none;rounded=0;" vertex="1" parent="1">
          <mxGeometry x="225" y="190.00000000000006" width="200" height="20" as="geometry" />
        </mxCell>
        <mxCell id="rGmWDZlZw_GgGo8omANq-63" value="&lt;b&gt;&lt;font style=&quot;font-size: 16px;&quot;&gt;SSH/HTTP&lt;/font&gt;&lt;/b&gt;" style="text;html=1;resizable=0;autosize=1;align=center;verticalAlign=middle;points=[];fillColor=none;strokeColor=none;rounded=0;" vertex="1" parent="1">
          <mxGeometry x="80.97999999999999" y="347" width="90" height="20" as="geometry" />
        </mxCell>
        <mxCell id="rGmWDZlZw_GgGo8omANq-64" style="edgeStyle=none;shape=flexArrow;rounded=0;orthogonalLoop=1;jettySize=auto;html=1;exitX=1.04;exitY=0.64;exitDx=0;exitDy=0;exitPerimeter=0;" edge="1" parent="1">
          <mxGeometry relative="1" as="geometry">
            <mxPoint x="369" y="295" as="sourcePoint" />
            <mxPoint x="492" y="295.7809523809524" as="targetPoint" />
          </mxGeometry>
        </mxCell>
        <mxCell id="rGmWDZlZw_GgGo8omANq-65" value="&lt;span style=&quot;font-size: 16px;&quot;&gt;&lt;b&gt;HTTP (80)&lt;/b&gt;&lt;/span&gt;" style="text;html=1;resizable=0;autosize=1;align=center;verticalAlign=middle;points=[];fillColor=none;strokeColor=none;rounded=0;" vertex="1" parent="1">
          <mxGeometry x="375" y="260" width="90" height="20" as="geometry" />
        </mxCell>
        <mxCell id="rGmWDZlZw_GgGo8omANq-66" style="edgeStyle=none;shape=flexArrow;rounded=0;orthogonalLoop=1;jettySize=auto;html=1;exitX=1.04;exitY=0.64;exitDx=0;exitDy=0;exitPerimeter=0;fillColor=#d5e8d4;strokeColor=#82b366;" edge="1" parent="1">
          <mxGeometry relative="1" as="geometry">
            <mxPoint x="147" y="295.61" as="sourcePoint" />
            <mxPoint x="270" y="296.3909523809524" as="targetPoint" />
          </mxGeometry>
        </mxCell>
      </root>
    </mxGraphModel>
  </diagram>
</mxfile>
